<?xml version="1.0" encoding="UTF-8"?>
<svg width="800" height="100" viewBox="0 0 800 100" xmlns="http://www.w3.org/2000/svg">
  <!-- 定义橙黄色渐变 -->
  <defs>
    <linearGradient id="buildingGradient" x1="0%" y1="0%" x2="0%" y2="100%">
      <stop offset="0%" stop-color="#f3d843" /><!-- 亮金黄 -->
      <stop offset="100%" stop-color="#f2ba76" /><!-- 深橙色 -->
    </linearGradient>
    <linearGradient id="accentGradient" x1="0%" y1="0%" x2="0%" y2="100%">
      <stop offset="0%" stop-color="#f7e78e" /><!-- 橙色 -->
      <stop offset="100%" stop-color="#f2ba76" /><!-- 橙红色 -->
    </linearGradient>
  </defs>

  <!-- 城市群背景 -->

  <!-- 建筑物群 -->
  <!-- 左侧建筑群 -->
  <rect x="50" y="40" width="30" height="60" fill="url(#buildingGradient)" rx="2" />
  <rect x="90" y="20" width="25" height="80" fill="url(#buildingGradient)" rx="2" />
  <rect x="125" y="50" width="20" height="50" fill="url(#buildingGradient)" rx="2" />
  <rect x="155" y="30" width="35" height="70" fill="url(#buildingGradient)" rx="2" />

  <!-- 中间高楼群 -->
  <rect x="220" y="10" width="40" height="90" fill="url(#accentGradient)" rx="2" />
  <rect x="270" y="30" width="30" height="70" fill="url(#buildingGradient)" rx="2" />
  <rect x="310" y="0" width="45" height="100" fill="url(#accentGradient)" rx="2" />
  <rect x="365" y="25" width="35" height="75" fill="url(#buildingGradient)" rx="2" />
  <rect x="410" y="15" width="30" height="85" fill="url(#buildingGradient)" rx="2" />

  <!-- 右侧建筑群 -->
  <rect x="480" y="40" width="25" height="60" fill="url(#buildingGradient)" rx="2" />
  <rect x="515" y="20" width="30" height="80" fill="url(#accentGradient)" rx="2" />
  <rect x="555" y="50" width="20" height="50" fill="url(#buildingGradient)" rx="2" />
  <rect x="585" y="30" width="35" height="70" fill="url(#buildingGradient)" rx="2" />
  <rect x="630" y="45" width="25" height="55" fill="url(#buildingGradient)" rx="2" />
  <rect x="665" y="25" width="30" height="75" fill="url(#accentGradient)" rx="2" />
  <rect x="705" y="35" width="20" height="65" fill="url(#buildingGradient)" rx="2" />
  <rect x="735" y="40" width="30" height="60" fill="url(#buildingGradient)" rx="2" />
  <rect x="775" y="25" width="25" height="75" fill="url(#accentGradient)" rx="2" />

  <!-- 细节装饰 - 窗户亮点 -->
  <circle cx="65" cy="50" r="2" fill="white" opacity="0.7" />
  <circle cx="240" cy="30" r="2" fill="white" opacity="0.7" />
  <circle cx="330" cy="40" r="2" fill="white" opacity="0.7" />
  <circle cx="535" cy="50" r="2" fill="white" opacity="0.7" />
  <circle cx="790" cy="60" r="2" fill="white" opacity="0.7" />
</svg>