<?xml version="1.0" standalone="no"?><!DOCTYPE svg PUBLIC "-//W3C//DTD SVG 1.1//EN" "http://www.w3.org/Graphics/SVG/1.1/DTD/svg11.dtd"><svg t="1752556967663" class="icon" viewBox="0 0 1024 1024" version="1.1" xmlns="http://www.w3.org/2000/svg" p-id="20051" xmlns:xlink="http://www.w3.org/1999/xlink" width="200" height="200"><path d="M896 0a128 128 0 0 1 128 128v768a128 128 0 0 1-128 128H128a128 128 0 0 1-128-128V128a128 128 0 0 1 128-128h768z m-162.176 219.136L227.936 439.104a59.68 59.68 0 0 0 8.64 112.512l121.76 32.064 262.624-225.024 3.84-2.304a14.016 14.016 0 0 1 15.936 3.84l2.112 3.392a14.016 14.016 0 0 1-2.112 14.784l-209.248 247.328 136.096 145.824a70.144 70.144 0 0 0 117.888-26.24l143.104-440.128a70.144 70.144 0 0 0-94.752-86.016z" fill="#5372EC" p-id="20052"></path></svg>