<?xml version="1.0" standalone="no"?><!DOCTYPE svg PUBLIC "-//W3C//DTD SVG 1.1//EN" "http://www.w3.org/Graphics/SVG/1.1/DTD/svg11.dtd"><svg t="1752560369723" class="icon" viewBox="0 0 1024 1024" version="1.1" xmlns="http://www.w3.org/2000/svg" p-id="35942" xmlns:xlink="http://www.w3.org/1999/xlink" width="200" height="200"><path d="M316.681481 551.822222c5.688889-1.896296 168.77037-11.377778 199.111112 153.6h3.792592c28.444444-164.977778 191.525926-157.392593 197.214815-157.392592h5.688889c0 5.688889-20.859259 157.392593-172.562963 170.666666l1.896296 132.740741v18.962963c1.896296 17.066667 7.585185 32.237037 15.170371 39.822222 1.896296 1.896296 5.688889 5.688889 17.066666 3.792593l11.377778-1.896296c155.496296-36.02963 263.585185-174.459259 261.688889-335.644445 0-91.022222-36.02963-176.355556-102.4-240.82963-64.474074-64.474074-151.703704-98.607407-242.725926-98.607407-187.733333 1.896296-339.437037 155.496296-339.437037 345.125926 1.896296 136.533333 83.437037 259.792593 208.592593 312.888889 17.066667 7.585185 22.755556 26.548148 17.066666 41.718518v1.896297c0 3.792593-1.896296 7.585185-1.896296 11.377777-7.585185 17.066667-26.548148 24.651852-43.614815 18.962963-153.6-66.37037-254.103704-218.074074-256-384.948148-1.896296-172.562963 100.503704-320.474074 248.414815-386.844444-68.266667-62.577778-132.740741-83.437037-134.637037-83.437037-9.481481-3.792593-15.17037-9.481481-18.962963-17.066667-9.481481-9.481481-15.17037-24.651852-9.481482-37.925926 5.688889-17.066667 24.651852-26.548148 41.718519-22.755555 3.792593 1.896296 104.296296 34.133333 195.318518 136.533333 30.340741-7.585185 60.681481-11.377778 92.918519-11.377778 34.133333 0 66.37037 3.792593 98.607407 11.377778C703.525926 70.162963 805.925926 37.925926 809.718519 36.02963c17.066667-5.688889 36.02963 5.688889 41.718518 22.755555 3.792593 13.274074 0 28.444444-11.377778 36.02963-3.792593 7.585185-11.377778 15.17037-18.962963 17.066666 0 0-66.37037 22.755556-134.637037 83.437038 45.511111 20.859259 87.22963 47.407407 123.25926 83.437037 79.644444 79.644444 123.259259 183.940741 125.155555 295.822222 1.896296 197.214815-130.844444 365.985185-322.37037 411.496296l-15.170371 3.792593c-5.688889 1.896296-11.377778 1.896296-17.066666 1.896296-26.548148 0-45.511111-11.377778-56.888889-20.859259-39.822222-36.02963-39.822222-108.088889-39.822222-121.362963l-1.896297-128.948148c-147.911111-11.377778-170.666667-161.185185-172.562963-166.874074 1.896296-1.896296 3.792593-1.896296 7.585185-1.896297z" fill="#29AB91" p-id="35943"></path></svg>