<?xml version="1.0" standalone="no"?><!DOCTYPE svg PUBLIC "-//W3C//DTD SVG 1.1//EN" "http://www.w3.org/Graphics/SVG/1.1/DTD/svg11.dtd"><svg t="1752557980000" class="icon" viewBox="0 0 1024 1024" version="1.1" xmlns="http://www.w3.org/2000/svg" p-id="28912" xmlns:xlink="http://www.w3.org/1999/xlink" width="200" height="200"><path d="M431.786667 158.72c18.773333 0 35.84 15.36 35.84 35.84v235.52c0 18.773333-15.36 35.84-35.84 35.84H194.56c-18.773333 0-35.84-15.36-35.84-35.84V194.56c0-18.773333 15.36-35.84 35.84-35.84h237.226667z m361.813333 361.813333c18.773333 0 35.84 15.36 35.84 35.84v235.52c0 18.773333-15.36 35.84-35.84 35.84H558.08c-18.773333 0-35.84-15.36-35.84-35.84V556.373333c0-18.773333 15.36-35.84 35.84-35.84h235.52z m-361.813333 0c18.773333 0 35.84 15.36 35.84 35.84v235.52c0 18.773333-15.36 35.84-35.84 35.84H194.56c-18.773333 0-35.84-15.36-35.84-35.84V556.373333c0-18.773333 15.36-35.84 35.84-35.84h237.226667z" fill="#BBBCBF" p-id="28913"></path><path d="M868.693333 233.813333l-209.92-110.933333a36.181333 36.181333 0 0 0-47.786666 15.36L500.053333 348.16c-8.533333 17.066667-1.706667 39.253333 15.36 47.786667l209.92 110.933333c17.066667 8.533333 39.253333 1.706667 47.786667-15.36l110.933333-209.92c8.533333-17.066667 1.706667-37.546667-15.36-47.786667z" fill="#CFCFD0" p-id="28914"></path></svg>