<?xml version="1.0" standalone="no"?><!DOCTYPE svg PUBLIC "-//W3C//DTD SVG 1.1//EN" "http://www.w3.org/Graphics/SVG/1.1/DTD/svg11.dtd"><svg t="1752571445064" class="icon" viewBox="0 0 1024 1024" version="1.1" xmlns="http://www.w3.org/2000/svg" p-id="51476" xmlns:xlink="http://www.w3.org/1999/xlink" width="200" height="200"><path d="M512 512m-512 0a512 512 0 1 0 1024 0 512 512 0 1 0-1024 0Z" fill="#24A5E9" p-id="51477"></path><path d="M625.844706 679.454118l85.835294 3.011764 55.115294-274.974117a393.938824 393.938824 0 0 1 60.235294 60.235294c19.877647 27.708235 34.032941 39.152941 42.465883 35.84s3.312941-19.576471 3.312941-19.576471c-6.625882-23.792941-106.014118-210.823529-365.628236-210.823529C297.562353 271.058824 150.588235 410.804706 150.588235 528.263529S292.442353 783.058824 512 783.058824s327.077647-117.458824 356.291765-195.162353c0 0 6.023529-14.757647 0-17.769412s-20.781176 5.12-40.658824 32.527059c-50.296471 68.668235-142.155294 124.084706-276.48 124.084706a391.529412 391.529412 0 0 1-174.983529-41.562353h90.352941c47.887059 0 158.72-12.348235 158.72-85.835295s-99.990588-78.305882-99.990588-140.348235c0-27.105882 41.562353-34.334118 68.367059-34.334117s62.945882-3.011765 62.945882-3.011765l6.927059-28.611765h-132.818824c-71.981176 0-129.505882 24.395294-129.505882 71.68 0 77.703529 106.917647 90.352941 106.917647 135.529412 0 24.696471-30.117647 45.778824-70.174118 45.778823a170.465882 170.465882 0 0 1-76.498823-22.287058L337.92 662.588235a167.152941 167.152941 0 0 1-74.390588-135.529411c0-124.084706 180.705882-183.717647 286.418823-183.717648a352.376471 352.376471 0 0 1 195.162353 48.188236h-64.150588z" fill="#FFFFFF" p-id="51478"></path></svg>