<?xml version="1.0" standalone="no"?><!DOCTYPE svg PUBLIC "-//W3C//DTD SVG 1.1//EN" "http://www.w3.org/Graphics/SVG/1.1/DTD/svg11.dtd"><svg t="1752631870620" class="icon" viewBox="0 0 1024 1024" version="1.1" xmlns="http://www.w3.org/2000/svg" p-id="10967" xmlns:xlink="http://www.w3.org/1999/xlink" width="200" height="200"><path d="M756.48 518.528c85.12 21.888 145.6 96.128 145.6 183.488 0 37.12-11.2 72.064-31.36 102.656l71.68 69.888c11.2 10.88 15.68 28.352 8.96 41.472-4.48 15.296-20.16 24-35.84 24-11.2 0-20.16-4.352-29.12-10.88l-71.68-69.888a196.352 196.352 0 0 1-237.44-19.648 185.792 185.792 0 0 1-38.08-229.312C581.76 533.76 671.36 496.64 756.48 518.528zM768 96a64 64 0 0 1 64 64l0.064 326.4a292.48 292.48 0 0 0-64-14.272L768 190.4a32 32 0 0 0-32-32h-576a32 32 0 0 0-32 32v560a32 32 0 0 0 32 32h289.728c2.496 21.632 7.488 42.56 14.72 62.464L128 844.8a64 64 0 0 1-64-64V160a64 64 0 0 1 64-64h640zM704 576c-70.272 0-128 57.728-128 128 0 70.272 57.728 128 128 128 70.272 0 128-57.728 128-128-2.56-70.272-57.728-128-128-128zM512.768 470.4a31.168 31.168 0 1 1 0 62.4H255.168a31.168 31.168 0 1 1 0-62.4h257.6z m128-187.2a31.232 31.232 0 0 1 0 62.4H255.168a31.168 31.168 0 1 1 0-62.4h385.6z" fill="#0A6FEB" p-id="10968"></path></svg>