<?xml version="1.0" standalone="no"?><!DOCTYPE svg PUBLIC "-//W3C//DTD SVG 1.1//EN" "http://www.w3.org/Graphics/SVG/1.1/DTD/svg11.dtd"><svg t="1752631749250" class="icon" viewBox="0 0 1024 1024" version="1.1" xmlns="http://www.w3.org/2000/svg" p-id="8203" xmlns:xlink="http://www.w3.org/1999/xlink" width="200" height="200"><path fill="#0D9488" d="M1003.868481 1016.631928a24.955974 24.955974 0 0 1-35.407962 0l-81.479914-81.692914a183.437807 183.437807 0 1 1 35.407962-35.407963l81.479914 81.693914a25.169973 25.169973 0 0 1 0 35.406963z m-226.737761-358.129623a130.752862 130.752862 0 1 0 130.326863 130.752863A130.539862 130.539862 0 0 0 777.12972 658.502305z m-71.454924-406.97557a130.965862 130.965862 0 0 0-3.625996-33.913965 42.659955 42.659955 0 0 0-19.40998-28.15597s-16.637982-10.450989-24.315974-14.077985a287.100697 287.100697 0 0 0-66.33693-21.329977 588.919379 588.919379 0 0 0-114.754879-10.450989c-9.81199 0-72.521924 2.985997-90.225905 5.545994a294.992689 294.992689 0 0 0-102.169892 31.140967 53.111944 53.111944 0 0 0-31.781967 34.980963 240.174747 240.174747 0 0 0-6.184993 45.432952l-126.059867-70.174926c8.317991-5.119995 14.503985-8.958991 21.329977-12.371987Q302.112221 91.551903 462.087053 4.739995a29.008969 29.008969 0 0 1 31.781966 0c107.289887 59.296937 215.858772 117.527876 324.214658 176.398814a155.921836 155.921836 0 0 1 15.143984 9.81099l-127.979865 70.602925s0.427-7.465992 0.427-10.025989zM208.47532 473.9995a63.989933 63.989933 0 0 1-37.75396 16.636983A63.989933 63.989933 0 0 1 131.900401 473.359501a688.530274 688.530274 0 0 1 26.449972-162.533829 21.329978 21.329978 0 0 1-10.239989-18.34398 21.329978 21.329978 0 0 1 17.064982-21.329978v-40.313957l11.304988 6.612993v34.766963a21.329978 21.329978 0 0 1 17.063982 21.329977 21.329978 21.329978 0 0 1-10.451989 18.343981 804.565151 804.565151 0 0 1 21.329977 93.424902A441.743534 441.743534 0 0 1 208.47532 473.9995z m477.363497-170.63982l-34.340964-8.744991a75.294921 75.294921 0 0 0-17.063982-3.839996c-25.169973-3.625996-50.764946-7.891992-76.36092-9.17099-34.767963-1.919998-69.535927-1.066999-104.30389-1.492998a488.455485 488.455485 0 0 0-85.31991 4.691995 199.43479 199.43479 0 0 0-42.659955 5.545994 343.199638 343.199638 0 0 0-57.376939 14.503984 13.010986 13.010986 0 0 1 0-2.559997 366.874613 366.874613 0 0 1 7.678992-82.972912c3.199997-12.157987 10.877989-15.783983 21.329977-21.329978a275.36971 275.36971 0 0 1 93.850901-27.301971 557.351412 557.351412 0 0 1 58.230939-4.692995 598.518369 598.518369 0 0 1 139.071853 9.59899 248.706738 248.706738 0 0 1 60.576936 19.836979 183.223807 183.223807 0 0 1 21.329978 12.797986 21.329978 21.329978 0 0 1 9.81099 15.356984 46.072951 46.072951 0 0 1 3.412996 20.049979c0 14.077985 0 45.859952 1.279999 59.937937z m1.279998 129.472863a26.661972 26.661972 0 0 1 26.661972 26.662972 135.018858 135.018858 0 0 1 0 25.808973 127.979865 127.979865 0 0 1-26.874971 67.189929 23.889975 23.889975 0 0 1-16.210983 10.449989c-3.199997 0-7.251992-2.131998-10.02499-1.704998s-3.625996 3.625996-5.332994 6.824993a252.759733 252.759733 0 0 1-33.913964 55.244942 186.423803 186.423803 0 0 1-96.624898 70.388925 194.955794 194.955794 0 0 1-115.181879-7.039992 183.437807 183.437807 0 0 1-99.183895-100.889894c-1.919998-4.052996-10.877989-24.102975-15.357984-25.169973a21.329978 21.329978 0 0 1-27.941971-5.971994 130.112863 130.112863 0 0 1-26.661972-67.401929 135.444857 135.444857 0 0 1 0-25.809973 26.661972 26.661972 0 0 1 26.874972-26.661972 13.224986 13.224986 0 0 0 3.412996 0c-1.279999-15.143984-2.772997-30.501968-3.625996-45.645951 0-18.76998-2.772997-37.75396-3.412996-56.310941l14.077985-5.119995c14.930984-5.544994 54.177943-13.649986 54.177943-13.649985l13.650985-2.559997a951.528996 951.528996 0 0 1 118.594875-6.825993c67.615929 0 139.497853 6.825993 150.802841 8.531991 0 0 21.329978 3.199997 23.889975 4.052995l51.617946 13.010987c0 8.318991-1.706998 16.423983-2.345998 24.742974-1.279999 19.40998-2.772997 39.033959-3.839996 58.656938 0 5.972994-1.492998 17.276982-1.492998 17.276982l1.279998 3.626996a14.503985 14.503985 0 0 0 3.199997-1.066999z m-35.833962-37.966959a156.561835 156.561835 0 0 1-63.989932-41.379957 275.15671 275.15671 0 0 1-106.649888 47.99195c-14.503985 3.412996-29.008969 5.971994-41.166957 8.104991a716.686244 716.686244 0 0 1-117.527876 8.531991c-6.611993 0-13.010986 0-21.329977-12.583987q1.279999 11.517988 1.492998 23.035976a307.150676 307.150676 0 0 0 14.717985 99.823895c22.609976 66.975929 52.257945 114.755879 106.649887 132.03286a147.176845 147.176845 0 0 0 49.058949 9.81199c106.649888 2.772997 160.187831-120.087873 167.439823-150.802841a775.983182 775.983182 0 0 0 14.077985-112.621881v-11.091988z m-332.533649 330.399651s23.035976 57.16494 36.259962 87.026908c8.531991 18.98398 26.449972 23.036976 45.432952 0 8.958991-11.304988 25.809973-34.127964 34.554963-45.859951s15.143984-10.877989 24.102975-2.131998c1.492998 1.279999 13.010986 11.517988 16.849982 11.517988s15.570984-10.237989 16.850982-11.517988c8.958991-8.958991 16.636982-8.105991 24.102975 2.132998l36.047962 50.764946v19.623979a270.463715 270.463715 0 0 0 58.016939 167.439824H12.666527a241.881745 241.881745 0 0 1 119.019874-200.287789c53.965943-33.701964 184.717805-77.427918 187.064803-78.707917z" p-id="8204"></path></svg>