<?xml version="1.0" standalone="no"?><!DOCTYPE svg PUBLIC "-//W3C//DTD SVG 1.1//EN" "http://www.w3.org/Graphics/SVG/1.1/DTD/svg11.dtd"><svg t="1752631590277" class="icon" viewBox="0 0 1024 1024" version="1.1" xmlns="http://www.w3.org/2000/svg" p-id="5345" xmlns:xlink="http://www.w3.org/1999/xlink" width="200" height="200"><path d="M560.872727 93.742545l385.326546 330.379637a28.439273 28.439273 0 0 1-18.525091 50.036363h-84.317091v341.248c0 41.890909-33.954909 75.869091-75.845818 75.869091h-512a75.869091 75.869091 0 0 1-75.869091-75.869091V474.158545H95.371636a28.439273 28.439273 0 0 1-18.525091-50.036363L462.149818 93.742545a75.869091 75.869091 0 0 1 98.746182 0z m63.720728 615.005091h-225.18691a29.649455 29.649455 0 0 0 0 59.252364h225.18691c16.290909 0 29.626182-13.265455 29.626181-29.626182l-0.046545-1.675636a29.649455 29.649455 0 0 0-29.579636-27.950546z m-22.69091-401.431272a27.624727 27.624727 0 0 0-38.306909 10.24l-49.105454 87.924363-0.861091 1.652364a27.601455 27.601455 0 0 0-1.349818 3.421091 29.44 29.44 0 0 0-2.234182-5.073455l-49.105455-87.924363a27.624727 27.624727 0 0 0-38.306909-10.24 29.323636 29.323636 0 0 0-10.542545 39.447272l41.797818 74.845091h-40.215273a29.672727 29.672727 0 1 0 0 59.345455h69.888v28.346182h-69.888a29.672727 29.672727 0 1 0 0 59.345454h69.888v61.882182a28.439273 28.439273 0 1 0 56.878546 0v-61.882182h69.888a29.672727 29.672727 0 1 0 0-59.345454h-69.888v-28.369455h69.888a29.672727 29.672727 0 1 0 0-59.345454H570.647273l41.821091-74.821819 0.791272-1.559272a29.323636 29.323636 0 0 0-11.333818-37.888z" fill="#FF8F1F" p-id="5346"></path></svg>