<?xml version="1.0" standalone="no"?><!DOCTYPE svg PUBLIC "-//W3C//DTD SVG 1.1//EN" "http://www.w3.org/Graphics/SVG/1.1/DTD/svg11.dtd"><svg t="1752631932265" class="icon" viewBox="0 0 1024 1024" version="1.1" xmlns="http://www.w3.org/2000/svg" p-id="12003" xmlns:xlink="http://www.w3.org/1999/xlink" width="200" height="200"><path d="M514.027102 505.521633m-501.55102 0a501.55102 501.55102 0 1 0 1003.10204 0 501.55102 501.55102 0 1 0-1003.10204 0Z" fill="#07c160" p-id="12004"></path><path d="M280.36702 629.300245v73.205551c0 10.093714 10.490776 21.169633 21.483102 22.590694l2.36147 0.167183h94.396081v55.797551H303.438367c-51.30449 0-77.510531-28.713796-79.036081-81.50204l-0.083592-5.015511v-65.243428h56.027428z m523.326694 0v65.243428c0.062694 52.537469-30.448327 84.490449-82.066285 86.413062l-4.911021 0.083592H629.446531v-55.797551h94.709551c10.929633 0 21.942857-10.24 23.363918-20.835266l0.146286-2.277877v-72.829388h56.027428zM503.578122 401.345306l-35.52653 177.632653h-74.64751l27.961469-139.932735h-76.277551c-14.168816 0-27.982367 11.598367-30.845388 25.91347l-10.093714 50.468571c-2.842122 14.315102 6.332082 25.913469 20.500898 25.91347h61.293714l-7.523265 37.637224h-135.941225c-14.189714 0-23.363918-11.598367-20.500898-25.892571l25.140245-125.84751c2.86302-14.294204 16.676571-25.892571 30.845388-25.892572h225.614367z m121.521633 0l-28.107755 139.995429h105.36751c8.923429 0 17.596082-7.251592 19.393306-16.195919 1.797224-8.944327-3.970612-16.17502-12.89404-16.17502h-64.491103c-14.252408 0-23.489306-11.598367-20.605387-25.913469l11.201306-55.797551c2.883918-14.315102 16.760163-25.913469 31.012571-25.91347h140.622368l-7.565062 37.699918h-90.341877c-8.902531 0-17.554286 7.188898-19.35151 16.091429-1.797224 8.944327 3.970612 16.195918 12.852245 16.195918h64.553795c14.23151 0 23.44751 11.598367 20.58449 25.91347l-11.222204 55.839347c-2.86302 14.294204-16.739265 25.913469-30.991673 25.913469h-230.71347l14.043429-70.008163h-35.317551l7.585959-37.679021h35.317551l14.043429-69.966367h75.023673z m83.759021-188.395102c55.275102 0.041796 92.849633 31.472327 94.772244 81.857306l0.062694 4.639347v65.243429h-56.00653v-72.80849c0-10.616163-10.281796-21.566694-21.023347-22.987755l-2.298776-0.167184H629.446531v-55.797551h79.412245z m-310.251103 0v55.797551H303.438367c-10.44898 0-21.524898 10.365388-22.945959 20.68898l-0.146286 2.194285v73.059266h-56.00653V299.467755c0-52.474776 30.61551-84.511347 82.066286-86.413061l4.890122-0.083592h87.290776z" fill="#FFFFFF" p-id="12005"></path></svg>