<?xml version="1.0" standalone="no"?><!DOCTYPE svg PUBLIC "-//W3C//DTD SVG 1.1//EN" "http://www.w3.org/Graphics/SVG/1.1/DTD/svg11.dtd"><svg t="1752632970538" class="icon" viewBox="0 0 1024 1024" version="1.1" xmlns="http://www.w3.org/2000/svg" p-id="15284" xmlns:xlink="http://www.w3.org/1999/xlink" width="200" height="200"><path d="M849.16992 0C946.57792 0 1024 77.42464 1024 174.83008v674.33984c0 97.408-77.42464 174.83008-174.83008 174.83008H174.83008C77.42208 1024 0 946.57536 0 849.16992V174.83008C0 77.42208 77.42464 0 174.83008 0h674.33984z m-116.91776 237.25312H294.8352c-15.08864 0-27.33824 12.25216-27.33824 27.34848v492.2752c0 15.09632 12.2496 27.34848 27.3408 27.34848h437.41184c15.08864 0 27.33824-12.25216 27.33824-27.34848v-157.47328l-130.10432 130.15296-116.07808-0.16384 0.16384-115.904 246.016-246.13888V264.6016c0-15.09632-12.24704-27.34848-27.33568-27.34848z m48.60672 186.1888L568.22272 636.16l-0.05632 38.6176 38.71232 0.05376 212.63616-212.71808-38.656-38.67136z m-267.3152 87.296v54.69952h-136.6912v-54.69696h136.6912z m82.01728-109.39392v54.69952h-218.70848v-54.69952h218.70848z" fill="#648CFE" p-id="15285"></path></svg>