<?xml version="1.0" standalone="no"?><!DOCTYPE svg PUBLIC "-//W3C//DTD SVG 1.1//EN" "http://www.w3.org/Graphics/SVG/1.1/DTD/svg11.dtd"><svg t="1752633101458" class="icon" viewBox="0 0 1066 1024" version="1.1" xmlns="http://www.w3.org/2000/svg" p-id="16900" xmlns:xlink="http://www.w3.org/1999/xlink" width="208.203125" height="200"><path d="M746.475307 405.333333c23.616 0 52.373333 16.661333 64.128 37.226667L960.00064 704h64.213333c22.378667 0 40.725333 17.258667 42.346667 39.466667L1066.667307 746.666667c0 23.573333-18.986667 42.666667-42.453334 42.666666h-64.234666L960.00064 938.88a85.077333 85.077333 0 0 1-80.96 85.013333l-4.266667 0.106667H191.893973A85.141333 85.141333 0 0 1 106.667307 938.88V789.333333H42.453973A42.453333 42.453333 0 0 1 0.00064 746.666667c0-23.573333 18.986667-42.666667 42.453333-42.666667H106.667307l149.397333-261.44c11.733333-20.565333 40.512-37.226667 64.128-37.226667zM874.667307 789.333333H192.00064v127.850667a21.333333 21.333333 0 0 0 18.709333 21.333333l2.474667 0.149334h640.298667c11.52 0 21.184-9.621333 21.184-21.482667V789.333333zM341.227307 490.666667c-11.733333 0-25.472 8.490667-30.698667 18.944L277.333973 576h42.688c11.776 0 24.874667 8.896 29.184 19.690667L392.533973 704h281.578667l43.349333-108.309333c3.989333-9.962667 15.445333-18.304 26.453334-19.541334l2.730666-0.149333H789.333973l-33.194666-66.389333c-5.226667-10.453333-18.986667-18.944-30.72-18.944H341.24864zM533.333973 0a192 192 0 1 1 0 384 192 192 0 0 1 0-384z m0 85.333333a106.666667 106.666667 0 1 0 0 213.333334 106.666667 106.666667 0 0 0 0-213.333334z" fill="#009dd9" p-id="16901"></path></svg>