<?xml version="1.0" standalone="no"?><!DOCTYPE svg PUBLIC "-//W3C//DTD SVG 1.1//EN" "http://www.w3.org/Graphics/SVG/1.1/DTD/svg11.dtd"><svg t="1752633186151" class="icon" viewBox="0 0 1024 1024" version="1.1" xmlns="http://www.w3.org/2000/svg" p-id="17972" xmlns:xlink="http://www.w3.org/1999/xlink" width="200" height="200"><path d="M467.42725 511.944131a22.25844 22.25844 0 0 0-22.25844-22.25844h-200.325965a22.25844 22.25844 0 0 0 0 44.516881h200.325965a22.25844 22.25844 0 0 0 22.25844-22.258441zM244.842845 690.011655a22.25844 22.25844 0 0 0 0 44.516881h111.292203a22.25844 22.25844 0 0 0 0-44.516881zM734.528536 267.101286a22.25844 22.25844 0 0 0 0 44.516881h66.775322a22.25844 22.25844 0 0 0 0-44.516881zM756.786977 467.42725a267.101286 267.101286 0 1 0 267.101286 267.101286 267.101286 267.101286 0 0 0-267.101286-267.101286z m0 489.685691a222.584405 222.584405 0 1 1 222.584405-222.584405 222.584405 222.584405 0 0 1-222.584405 222.584405z" fill="#489BF7" p-id="17973"></path><path d="M494.582548 955.55485H169.831901a56.981608 56.981608 0 0 1-56.981608-56.759023V125.092436a56.981608 56.981608 0 0 1 56.981608-56.759024h684.224461a56.981608 56.981608 0 0 1 56.981607 56.759024v295.814674a34.277998 34.277998 0 0 0 68.333413 0V125.092436A125.31502 125.31502 0 0 0 854.056362 0H169.831901A125.31502 125.31502 0 0 0 44.516881 125.092436v773.703391A125.31502 125.31502 0 0 0 169.831901 1023.888263h324.750647a34.277998 34.277998 0 1 0 0-68.333413z" fill="#489BF7" p-id="17974"></path><path d="M645.494774 289.359726a22.25844 22.25844 0 0 0-22.25844-22.25844H244.842845a22.25844 22.25844 0 0 0 0 44.516881h378.393489a22.25844 22.25844 0 0 0 22.25844-22.258441zM896.792567 698.024694H868.079179l2.671013-5.787195a107.063099 107.063099 0 0 0 8.013039-18.69709 18.69709 18.69709 0 0 0-12.019558-24.484284 16.916415 16.916415 0 0 0-23.816532 10.238882 235.939469 235.939469 0 0 1-15.803492 38.729687h-13.355065V645.494774h74.343192c9.571129 0 14.467986-7.56787 14.467986-20.255181s-6.232363-17.584168-15.803493-18.69709h-45.852387a65.217231 65.217231 0 0 1 4.896857-12.242142 19.142259 19.142259 0 1 0-35.836089-12.909895c-3.56135 9.571129-6.454948 17.806752-9.125961 24.484284h-75.678698a213.013276 213.013276 0 0 1-13.355064-25.819791 20.032596 20.032596 0 0 0-27.823051-10.238882 18.919674 18.919674 0 0 0-9.12596 27.377881l4.006519 8.680792h-54.08801a18.029337 18.029337 0 0 0-17.139 18.69709c0 12.687311 6.232363 19.364843 15.803493 20.255181h81.020724v53.197673h-24.039116a14.913155 14.913155 0 0 0 2.671013-17.138999 117.079397 117.079397 0 0 0-22.258441-28.935973c-20.255181-8.680792-29.603726-1.780675-27.82305 20.255181a4.229104 4.229104 0 0 0 1.335506 2.893597 257.307572 257.307572 0 0 0 18.474506 24.484285h-37.171596q-13.355064 1.335506-14.690571 18.69709c0 12.464727 4.451688 19.142259 13.355065 20.255181h283.572531c9.793714 0 14.690571-7.790454 14.690571-20.255181s-6.232363-19.142259-15.803493-20.255181z m-123.534344 0h-30.494064V645.494774h30.494064zM850.272427 752.780457h-190.97742c-14.913155 0-22.25844 10.684051-23.816531 28.935973v89.033762c0 22.25844 7.56787 33.610245 25.152038 31.606986h188.306406c22.25844 0 31.384401-10.016298 30.494064-33.165077V779.045417c0.890338-17.584168-8.903376-26.26496-29.158557-26.26496z m-13.355065 111.292203h-162.931784V845.820739h162.931784z m0-56.313855h-162.931784v-17.138999h162.931784z" fill="#489BF7" p-id="17975"></path></svg>