<?xml version="1.0" standalone="no"?><!DOCTYPE svg PUBLIC "-//W3C//DTD SVG 1.1//EN" "http://www.w3.org/Graphics/SVG/1.1/DTD/svg11.dtd"><svg t="1752631497514" class="icon" viewBox="0 0 1053 1024" version="1.1" xmlns="http://www.w3.org/2000/svg" p-id="3434" xmlns:xlink="http://www.w3.org/1999/xlink" width="205.6640625" height="200"><path d="M686.155852 420.333037c13.947259 97.498074-65.042963 178.337185-145.275259 178.337185s-154.624-80.289185-145.27526-178.337185C404.764444 324.380444 541.297778 201.576296 541.297778 201.576296s131.13837 122.804148 144.858074 218.756741z" fill="#CF0009" p-id="3435"></path><path d="M478.236444 437.172148h126.122667v28.946963H478.236444z" fill="#FFFFFF" p-id="3436"></path><path d="M555.773156 388.589985v126.122667h-28.946963v-126.122667z" fill="#FFFFFF" p-id="3437"></path><path d="M221.354667 409.685333c-6.011259 0-30.39763 22.091852 0 125.108148 41.301333 139.937185 162.398815 175.625481 162.398814 175.625482s87.817481 24.054519 87.817482 61.345185h56.538074s2.806519-82.479407-32.075852-127.108741c-26.462815-32.881778-73.775407-29.269333-124.302222-70.570666s-49.720889-37.688889-56.936296-34.882371c-7.215407 2.806519-8.419556 24.462222 16.042666 44.913778s38.855111 41.528889 55.333926 52.129185c-18.849185-4.010667-78.592-23.258074-108.259555-76.591407-8.448-15.179852-17.028741-30.208-22.385778-46.885926-13.454222-41.908148-16.564148-84.053333-19.721482-90.652444-4.427852-9.216-8.438519-12.430222-14.449777-12.430223zM861.240889 409.685333c6.011259 0 30.39763 22.091852 0 125.108148-41.301333 139.937185-162.398815 175.625481-162.398815 175.625482s-87.817481 24.054519-87.817481 61.345185h-56.538074s-2.806519-82.479407 32.075851-127.108741c26.462815-32.881778 73.775407-29.269333 124.302223-70.570666 50.526815-41.301333 49.720889-37.688889 56.936296-34.882371 7.215407 2.806519 8.419556 24.462222-16.042667 44.913778s-38.855111 41.528889-55.333926 52.129185c18.849185-4.010667 78.592-23.258074 108.259556-76.591407 8.448-15.179852 17.028741-30.208 22.385778-46.885926 13.454222-41.908148 16.564148-84.053333 19.721481-90.652444 4.41837-9.216 8.429037-12.430222 14.449778-12.430223z" fill="#CF0009" p-id="3438"></path></svg>