<?xml version="1.0" standalone="no"?><!DOCTYPE svg PUBLIC "-//W3C//DTD SVG 1.1//EN" "http://www.w3.org/Graphics/SVG/1.1/DTD/svg11.dtd"><svg t="1752633337952" class="icon" viewBox="0 0 1024 1024" version="1.1" xmlns="http://www.w3.org/2000/svg" p-id="21698" xmlns:xlink="http://www.w3.org/1999/xlink" width="200" height="200"><path d="M556.474182 108.916364l412.16 341.294545A34.909091 34.909091 0 0 1 946.385455 512h-76.404364v372.363636a69.818182 69.818182 0 0 1-69.818182 69.818182H223.837091a69.818182 69.818182 0 0 1-69.818182-69.818182V512H76.637091a34.909091 34.909091 0 0 1-22.248727-61.812364l413.090909-341.294545a69.818182 69.818182 0 0 1 88.994909 0.046545zM500.363636 395.636364a174.545455 174.545455 0 1 0 92.648728 322.490181l5.678545-3.723636 71.796364 68.538182a30.580364 30.580364 0 0 0 39.773091 2.094545l2.443636-2.094545 0.930909-0.930909a27.834182 27.834182 0 0 0 1.163636-37.143273l-2.094545-2.210909-71.982545-68.677818A174.545455 174.545455 0 0 0 500.363636 395.636364z m0 60.183272a114.362182 114.362182 0 1 1 0 228.724364 114.362182 114.362182 0 0 1 0-228.724364z" fill="#1677FF" p-id="21699"></path></svg>