<?xml version="1.0" standalone="no"?><!DOCTYPE svg PUBLIC "-//W3C//DTD SVG 1.1//EN" "http://www.w3.org/Graphics/SVG/1.1/DTD/svg11.dtd"><svg t="1752633448999" class="icon" viewBox="0 0 1024 1024" version="1.1" xmlns="http://www.w3.org/2000/svg" p-id="26434" xmlns:xlink="http://www.w3.org/1999/xlink" width="200" height="200"><path d="M816.514 503.346c0-10.235-8.302-18.537-18.537-18.537H528.636c-10.235 0-18.537 8.302-18.537 18.537s8.302 18.537 18.537 18.537h269.341c10.235 0.001 18.537-8.302 18.537-18.537z m-18.537-131.213H528.636c-10.235 0-18.537 8.302-18.537 18.537s8.302 18.537 18.537 18.537h269.341c10.235 0 18.537-8.302 18.537-18.537s-8.302-18.537-18.537-18.537zM528.636 597.7c-10.12 0-18.322 8.202-18.322 18.323s8.202 18.323 18.322 18.323h169.97c10.12 0 18.323-8.202 18.323-18.323s-8.202-18.323-18.323-18.323h-169.97z m309.439 41.556c-29.772 0-57.105 23.913-57.105 57.104 0 9.276 5.855 15.131 15.131 15.131 9.272 0 15.13-5.855 15.13-15.131 0-15.131 12.201-27.333 27.333-27.333 9.272 0 15.131-5.858 14.641-14.642 0.001-9.275-5.853-15.129-15.13-15.129z" fill="#1890FF" p-id="26435"></path><path d="M947.409 799.349l-42.953-42.952c15.131-16.596 24.407-39.049 24.407-62.963 0-51.25-41.976-93.228-93.227-93.228-51.25 0-93.227 41.978-93.227 93.228 0 51.247 41.977 93.224 93.227 93.224 16.595 0 31.726-3.903 45.392-11.712l44.907 44.903c2.928 0 8.784 2.929 12.201 2.929 3.415 0 6.344-2.929 9.273-2.929 5.857-5.859 5.857-15.132 0-20.5z m-111.774-42.463c-36.119 0-63.452-27.335-63.452-63.451 0-36.119 27.333-63.456 63.452-63.456 36.12 0 63.451 27.337 63.451 63.456 0.001 36.115-27.331 63.451-63.451 63.451z" fill="#1890FF" p-id="26436"></path><path d="M115.092 778.454V261.188c0-6.24 5.057-11.298 11.297-11.298h735.919c6.239 0 11.298 5.057 11.298 11.298V564.21H907.5V261.188c0-11.984-4.76-23.48-13.236-31.956a45.193 45.193 0 0 0-31.956-13.235H663.056v-35.892c0-24.871-20.241-45.105-45.112-45.105H370.755c-24.871 0-45.112 20.233-45.112 45.105v35.892H126.389a45.194 45.194 0 0 0-31.955 13.235 45.197 45.197 0 0 0-13.235 31.956v517.266a45.187 45.187 0 0 0 45.19 45.19h640.875V789.75H126.389c-6.24 0.001-11.297-5.057-11.297-11.296z m244.577-598.349c0-6.112 4.974-11.079 11.087-11.079h247.189c6.112 0 11.087 4.967 11.087 11.079v35.056H359.669v-35.056z" fill="#1890FF" p-id="26437"></path><path d="M169.448 605.987c3.221 4.265 8.609 6.354 13.837 5.227l40.295-8.204 13.997 38.688c1.85 5.149 6.595 8.771 12.144 9.089h0.966c5.149 0 9.893-2.813 12.309-7.477l38.123-72.956c5.633 0.805 11.261 1.371 17.132 1.371 5.554 0 10.859-0.483 16.169-1.288l39.813 73.113c2.415 4.505 7.16 7.239 12.148 7.239 0.401 0 0.805 0 1.205-0.079 5.472-0.483 10.136-4.104 11.904-9.331l13.354-38.85 40.457 7.564a13.965 13.965 0 0 0 13.753-5.472c3.06-4.265 3.383-10.054 0.805-14.719l-45.522-83.007c7.722-15.525 12.143-32.979 12.143-51.477 0-64.19-52.204-116.39-116.39-116.39s-116.385 52.199-116.385 116.39c0 18.015 4.262 34.985 11.582 50.271l-45.044 85.5c-2.494 4.744-2.011 10.454 1.205 14.798z m260.126-28.392l-23.486-4.426c-6.76-1.123-13.437 2.655-15.687 9.171l-6.999 20.43-21.474-39.573c16.569-6.759 31.207-17.292 43.033-30.484l24.613 44.882zM318.09 366.779c48.905 0 88.639 39.733 88.639 88.639 0 48.901-39.733 88.634-88.639 88.634-48.9 0-88.638-39.813-88.638-88.634 0-48.906 39.738-88.639 88.638-88.639z m-87.429 165.207a116.543 116.543 0 0 0 42.872 30.89l-20.592 39.651-7.32-20.27c-2.011-5.549-7.32-9.166-13.032-9.166-0.884 0-1.85 0.078-2.816 0.321l-23.403 4.745 24.291-46.171z" fill="#1890FF" p-id="26438"></path></svg>