<?xml version="1.0" standalone="no"?><!DOCTYPE svg PUBLIC "-//W3C//DTD SVG 1.1//EN" "http://www.w3.org/Graphics/SVG/1.1/DTD/svg11.dtd"><svg t="1752632009739" class="icon" viewBox="0 0 1024 1024" version="1.1" xmlns="http://www.w3.org/2000/svg" p-id="14276" xmlns:xlink="http://www.w3.org/1999/xlink" width="200" height="200"><path d="M512 234.666667a352.028444 352.028444 0 0 1 352.028444 352.028444V938.666667h65.308445a30.72 30.72 0 0 1 30.72 30.72v2.56a30.72 30.72 0 0 1-30.72 30.72H94.72a30.72 30.72 0 0 1-30.72-30.72v-2.56a30.72 30.72 0 0 1 30.72-30.72h65.251556v-351.971556A352.028444 352.028444 0 0 1 512 234.666667z m0 522.638222l-6.030222 0.341333a43.292444 43.292444 0 0 0-16.042667 5.176889 39.936 39.936 0 0 0-15.075555 15.075556 44.487111 44.487111 0 0 0-5.518223 22.129777l0.341334 6.030223a43.292444 43.292444 0 0 0 5.176889 16.042666 39.651556 39.651556 0 0 0 15.018666 15.018667 44.657778 44.657778 0 0 0 22.129778 5.518222l6.030222-0.341333a43.292444 43.292444 0 0 0 16.042667-5.176889 39.651556 39.651556 0 0 0 15.018667-15.018667 44.487111 44.487111 0 0 0 5.518222-22.129777l-0.341334-6.030223a43.292444 43.292444 0 0 0-5.176888-16.042666 39.139556 39.139556 0 0 0-14.961778-15.018667 44.657778 44.657778 0 0 0-22.129778-5.575111zM532.650667 426.666667h-42.097778l-0.682667 0.056889a20.423111 20.423111 0 0 0-18.944 21.902222l18.261334 255.431111a22.926222 22.926222 0 0 0 45.681777 0l18.261334-255.431111V447.146667a20.48 20.48 0 0 0-20.48-20.48z m441.685333-128.398223a29.923556 29.923556 0 0 1 23.893333 11.434667l3.413334 4.949333a33.28 33.28 0 0 1 4.664889 16.440889 29.923556 29.923556 0 0 1-4.096 15.416889 34.474667 34.474667 0 0 1-12.344889 11.889778l-92.387556 53.361778c-5.404444 3.128889-10.979556 4.608-16.440889 4.664889s-10.695111-1.365333-15.416889-4.096c-4.664889-2.787556-8.760889-6.883556-11.889777-12.288s-4.608-10.979556-4.664889-16.440889a29.923556 29.923556 0 0 1 4.096-15.416889 33.848889 33.848889 0 0 1 12.288-11.889778l92.387555-53.361778a34.133333 34.133333 0 0 1 16.497778-4.664889z m-924.672 0a33.905778 33.905778 0 0 1 16.440889 4.664889l92.387555 53.361778a33.848889 33.848889 0 0 1 12.288 11.889778 28.728889 28.728889 0 0 1 4.096 15.416889 33.109333 33.109333 0 0 1-4.664888 16.384 33.848889 33.848889 0 0 1-11.889778 12.288 29.297778 29.297778 0 0 1-15.416889 4.152889 33.166222 33.166222 0 0 1-16.384-4.721778L34.133333 358.4a33.848889 33.848889 0 0 1-12.288-11.889778 29.468444 29.468444 0 0 1-2.048-26.396444l2.56-5.461334a33.848889 33.848889 0 0 1 11.889778-12.288 30.151111 30.151111 0 0 1 15.416889-4.096zM778.24 103.025778a32.654222 32.654222 0 0 1 10.979556 2.104889l5.461333 2.56c5.404444 3.128889 9.500444 7.224889 12.288 11.889777s4.209778 9.955556 4.096 15.416889-1.592889 11.036444-4.664889 16.440889l-53.361778 92.387556a33.848889 33.848889 0 0 1-11.889778 12.288c-4.664889 2.787556-9.955556 4.209778-15.416888 4.096a34.531556 34.531556 0 0 1-28.728889-16.554667 28.728889 28.728889 0 0 1-4.096-15.416889 33.905778 33.905778 0 0 1 4.664889-16.440889L750.933333 119.466667c3.128889-5.404444 7.224889-9.500444 11.889778-12.288s9.955556-4.209778 15.416889-4.152889z m-532.48 0a29.468444 29.468444 0 0 1 15.416889 4.152889 33.848889 33.848889 0 0 1 11.889778 12.288l53.361777 92.387555a33.678222 33.678222 0 0 1 4.664889 16.384 29.923556 29.923556 0 0 1-4.096 15.416889c-2.844444 4.664889-6.940444 8.760889-12.344889 11.889778s-10.979556 4.608-16.440888 4.664889a29.240889 29.240889 0 0 1-15.36-4.096 32.995556 32.995556 0 0 1-11.889778-12.288l-53.361778-92.387556a33.735111 33.735111 0 0 1-4.664889-16.440889 29.752889 29.752889 0 0 1 11.434667-23.836444l4.949333-3.413333a33.393778 33.393778 0 0 1 16.440889-4.721778zM512 31.971556c6.200889 0 11.832889 1.479111 16.554667 4.152888 4.778667 2.730667 8.590222 6.542222 11.264 11.320889s4.152889 10.353778 4.152889 16.554667V170.666667a33.393778 33.393778 0 0 1-4.152889 16.554666 29.013333 29.013333 0 0 1-11.264 11.264c-4.721778 2.673778-10.353778 4.152889-16.554667 4.152889s-11.832889-1.479111-16.554667-4.152889a29.013333 29.013333 0 0 1-11.264-11.264A33.393778 33.393778 0 0 1 480.028444 170.666667V64c0-6.200889 1.479111-11.832889 4.152889-16.554667a29.752889 29.752889 0 0 1 21.845334-14.961777L512 31.971556z" fill="#FF6F00" p-id="14277"></path></svg>